<svg xmlns="http://www.w3.org/2000/svg" xmlns:xlink="http://www.w3.org/1999/xlink" width="500" zoomAndPan="magnify" viewBox="0 0 375 374.999991" height="500" preserveAspectRatio="xMidYMid meet" version="1.0"><defs><clipPath id="8c25a409d7"><path d="M 0 39.140625 L 375 39.140625 L 375 336 L 0 336 Z M 0 39.140625 " clip-rule="nonzero"/></clipPath></defs><g clip-path="url(#8c25a409d7)"><path fill="#17cba1" d="M 124.390625 38.925781 C 123.78125 38.949219 123.175781 39.007812 122.574219 39.097656 C 121.972656 39.191406 121.375 39.320312 120.789062 39.480469 C 120.199219 39.644531 119.625 39.839844 119.058594 40.070312 C 118.496094 40.300781 117.945312 40.5625 117.410156 40.855469 C 116.878906 41.152344 116.363281 41.476562 115.867188 41.832031 C 115.371094 42.183594 114.894531 42.566406 114.445312 42.976562 C 113.992188 43.386719 113.566406 43.824219 113.167969 44.28125 C 112.765625 44.742188 112.394531 45.226562 112.050781 45.726562 C 111.707031 46.230469 111.394531 46.753906 111.109375 47.292969 C 110.828125 47.835938 110.578125 48.390625 110.359375 48.960938 C 110.144531 49.527344 109.960938 50.109375 109.808594 50.699219 C 109.660156 51.292969 109.542969 51.890625 109.464844 52.492188 C 109.386719 53.097656 109.339844 53.707031 109.332031 54.316406 C 109.324219 54.925781 109.351562 55.535156 109.414062 56.140625 C 109.476562 56.746094 109.574219 57.347656 109.707031 57.941406 C 109.839844 58.539062 110.007812 59.125 110.210938 59.699219 L 120.703125 91.207031 C 78.773438 103.648438 46.167969 137.496094 35.328125 180.089844 C 15.578125 182.03125 0.0976562 198.472656 0.0976562 218.734375 C 0.0976562 240.300781 17.574219 257.777344 39.140625 257.777344 L 40.511719 257.777344 C 59.058594 303.535156 103.855469 335.859375 156.265625 335.859375 L 218.734375 335.859375 C 271.144531 335.859375 315.941406 303.535156 334.488281 257.777344 L 335.859375 257.777344 C 357.425781 257.777344 374.902344 240.300781 374.902344 218.734375 C 374.902344 198.472656 359.421875 182.03125 339.671875 180.089844 C 328.832031 137.496094 296.226562 103.648438 254.296875 91.207031 L 264.789062 59.699219 C 264.996094 59.113281 265.164062 58.519531 265.296875 57.914062 C 265.429688 57.3125 265.527344 56.699219 265.589844 56.085938 C 265.652344 55.46875 265.675781 54.851562 265.664062 54.230469 C 265.648438 53.613281 265.601562 52.996094 265.515625 52.382812 C 265.429688 51.769531 265.308594 51.164062 265.148438 50.566406 C 264.992188 49.96875 264.800781 49.378906 264.570312 48.804688 C 264.34375 48.226562 264.082031 47.667969 263.789062 47.125 C 263.496094 46.578125 263.167969 46.054688 262.8125 45.546875 C 262.457031 45.042969 262.070312 44.558594 261.65625 44.097656 C 261.242188 43.636719 260.804688 43.203125 260.335938 42.796875 C 259.871094 42.386719 259.382812 42.007812 258.871094 41.660156 C 258.363281 41.308594 257.832031 40.992188 257.28125 40.703125 C 256.734375 40.417969 256.171875 40.164062 255.59375 39.945312 C 255.011719 39.722656 254.421875 39.539062 253.824219 39.390625 C 253.222656 39.242188 252.613281 39.125 252 39.050781 C 251.386719 38.972656 250.769531 38.929688 250.148438 38.925781 C 249.320312 38.921875 248.496094 38.980469 247.679688 39.105469 C 246.859375 39.230469 246.054688 39.417969 245.265625 39.671875 C 244.476562 39.921875 243.710938 40.238281 242.972656 40.613281 C 242.230469 40.988281 241.527344 41.417969 240.855469 41.902344 C 240.183594 42.390625 239.558594 42.925781 238.972656 43.515625 C 238.386719 44.101562 237.851562 44.730469 237.367188 45.402344 C 236.878906 46.074219 236.453125 46.78125 236.078125 47.519531 C 235.707031 48.261719 235.394531 49.027344 235.144531 49.816406 L 223.003906 86.203125 C 221.574219 86.15625 220.175781 85.992188 218.734375 85.992188 L 156.265625 85.992188 C 154.824219 85.992188 153.425781 86.15625 151.996094 86.203125 L 139.855469 49.816406 C 139.601562 49.007812 139.28125 48.226562 138.894531 47.46875 C 138.511719 46.710938 138.070312 45.992188 137.570312 45.308594 C 137.066406 44.621094 136.515625 43.984375 135.910156 43.390625 C 135.304688 42.792969 134.652344 42.253906 133.960938 41.765625 C 133.265625 41.277344 132.539062 40.847656 131.773438 40.476562 C 131.011719 40.109375 130.222656 39.800781 129.410156 39.5625 C 128.59375 39.320312 127.769531 39.144531 126.925781 39.039062 C 126.085938 38.933594 125.238281 38.894531 124.390625 38.925781 Z M 156.265625 117.222656 L 218.734375 117.222656 C 270.394531 117.222656 312.433594 159.265625 312.433594 210.925781 C 312.433594 262.585938 270.394531 304.625 218.734375 304.625 L 156.265625 304.625 C 104.605469 304.625 62.566406 262.585938 62.566406 210.925781 C 62.566406 159.265625 104.605469 117.222656 156.265625 117.222656 Z M 156.265625 148.457031 C 121.816406 148.457031 93.800781 176.472656 93.800781 210.925781 C 93.800781 245.375 121.816406 273.390625 156.265625 273.390625 L 218.734375 273.390625 C 253.183594 273.390625 281.199219 245.375 281.199219 210.925781 C 281.199219 176.472656 253.183594 148.457031 218.734375 148.457031 Z M 140.648438 195.308594 C 149.269531 195.308594 156.265625 202.304688 156.265625 210.925781 C 156.265625 219.546875 149.269531 226.542969 140.648438 226.542969 C 132.027344 226.542969 125.03125 219.546875 125.03125 210.925781 C 125.03125 202.304688 132.027344 195.308594 140.648438 195.308594 Z M 234.351562 195.308594 C 242.972656 195.308594 249.96875 202.304688 249.96875 210.925781 C 249.96875 219.546875 242.972656 226.542969 234.351562 226.542969 C 225.730469 226.542969 218.734375 219.546875 218.734375 210.925781 C 218.734375 202.304688 225.730469 195.308594 234.351562 195.308594 Z M 234.351562 195.308594 " fill-opacity="1" fill-rule="nonzero"/><path fill="#17cba1" d="M 124.390625 38.925781 C 123.78125 38.949219 123.175781 39.007812 122.574219 39.097656 C 121.972656 39.191406 121.375 39.320312 120.789062 39.480469 C 120.199219 39.644531 119.625 39.839844 119.058594 40.070312 C 118.496094 40.300781 117.945312 40.5625 117.410156 40.855469 C 116.878906 41.152344 116.363281 41.476562 115.867188 41.832031 C 115.371094 42.183594 114.894531 42.566406 114.445312 42.976562 C 113.992188 43.386719 113.566406 43.824219 113.167969 44.28125 C 112.765625 44.742188 112.394531 45.226562 112.050781 45.726562 C 111.707031 46.230469 111.394531 46.753906 111.109375 47.292969 C 110.828125 47.835938 110.578125 48.390625 110.359375 48.960938 C 110.144531 49.527344 109.960938 50.109375 109.808594 50.699219 C 109.660156 51.292969 109.542969 51.890625 109.464844 52.492188 C 109.386719 53.097656 109.339844 53.707031 109.332031 54.316406 C 109.324219 54.925781 109.351562 55.535156 109.414062 56.140625 C 109.476562 56.746094 109.574219 57.347656 109.707031 57.941406 C 109.839844 58.539062 110.007812 59.125 110.210938 59.699219 L 120.703125 91.207031 C 78.773438 103.648438 46.167969 137.496094 35.328125 180.089844 C 15.578125 182.03125 0.0976562 198.472656 0.0976562 218.734375 C 0.0976562 240.300781 17.574219 257.777344 39.140625 257.777344 L 40.511719 257.777344 C 59.058594 303.535156 103.855469 335.859375 156.265625 335.859375 L 218.734375 335.859375 C 271.144531 335.859375 315.941406 303.535156 334.488281 257.777344 L 335.859375 257.777344 C 357.425781 257.777344 374.902344 240.300781 374.902344 218.734375 C 374.902344 198.472656 359.421875 182.03125 339.671875 180.089844 C 328.832031 137.496094 296.226562 103.648438 254.296875 91.207031 L 264.789062 59.699219 C 264.996094 59.113281 265.164062 58.519531 265.296875 57.914062 C 265.429688 57.3125 265.527344 56.699219 265.589844 56.085938 C 265.652344 55.46875 265.675781 54.851562 265.664062 54.230469 C 265.648438 53.613281 265.601562 52.996094 265.515625 52.382812 C 265.429688 51.769531 265.308594 51.164062 265.148438 50.566406 C 264.992188 49.96875 264.800781 49.378906 264.570312 48.804688 C 264.34375 48.226562 264.082031 47.667969 263.789062 47.125 C 263.496094 46.578125 263.167969 46.054688 262.8125 45.546875 C 262.457031 45.042969 262.070312 44.558594 261.65625 44.097656 C 261.242188 43.636719 260.804688 43.203125 260.335938 42.796875 C 259.871094 42.386719 259.382812 42.007812 258.871094 41.660156 C 258.363281 41.308594 257.832031 40.992188 257.28125 40.703125 C 256.734375 40.417969 256.171875 40.164062 255.59375 39.945312 C 255.011719 39.722656 254.421875 39.539062 253.824219 39.390625 C 253.222656 39.242188 252.613281 39.125 252 39.050781 C 251.386719 38.972656 250.769531 38.929688 250.148438 38.925781 C 249.320312 38.921875 248.496094 38.980469 247.679688 39.105469 C 246.859375 39.230469 246.054688 39.417969 245.265625 39.671875 C 244.476562 39.921875 243.710938 40.238281 242.972656 40.613281 C 242.230469 40.988281 241.527344 41.417969 240.855469 41.902344 C 240.183594 42.390625 239.558594 42.925781 238.972656 43.515625 C 238.386719 44.101562 237.851562 44.730469 237.367188 45.402344 C 236.878906 46.074219 236.453125 46.78125 236.078125 47.519531 C 235.707031 48.261719 235.394531 49.027344 235.144531 49.816406 L 223.003906 86.203125 C 221.574219 86.15625 220.175781 85.992188 218.734375 85.992188 L 156.265625 85.992188 C 154.824219 85.992188 153.425781 86.15625 151.996094 86.203125 L 139.855469 49.816406 C 139.601562 49.007812 139.28125 48.226562 138.894531 47.46875 C 138.511719 46.710938 138.070312 45.992188 137.570312 45.308594 C 137.066406 44.621094 136.515625 43.984375 135.910156 43.390625 C 135.304688 42.792969 134.652344 42.253906 133.960938 41.765625 C 133.265625 41.277344 132.539062 40.847656 131.773438 40.476562 C 131.011719 40.109375 130.222656 39.800781 129.410156 39.5625 C 128.59375 39.320312 127.769531 39.144531 126.925781 39.039062 C 126.085938 38.933594 125.238281 38.894531 124.390625 38.925781 Z M 156.265625 117.222656 L 218.734375 117.222656 C 270.394531 117.222656 312.433594 159.265625 312.433594 210.925781 C 312.433594 262.585938 270.394531 304.625 218.734375 304.625 L 156.265625 304.625 C 104.605469 304.625 62.566406 262.585938 62.566406 210.925781 C 62.566406 159.265625 104.605469 117.222656 156.265625 117.222656 Z M 156.265625 148.457031 C 121.816406 148.457031 93.800781 176.472656 93.800781 210.925781 C 93.800781 245.375 121.816406 273.390625 156.265625 273.390625 L 218.734375 273.390625 C 253.183594 273.390625 281.199219 245.375 281.199219 210.925781 C 281.199219 176.472656 253.183594 148.457031 218.734375 148.457031 Z M 140.648438 195.308594 C 149.269531 195.308594 156.265625 202.304688 156.265625 210.925781 C 156.265625 219.546875 149.269531 226.542969 140.648438 226.542969 C 132.027344 226.542969 125.03125 219.546875 125.03125 210.925781 C 125.03125 202.304688 132.027344 195.308594 140.648438 195.308594 Z M 234.351562 195.308594 C 242.972656 195.308594 249.96875 202.304688 249.96875 210.925781 C 249.96875 219.546875 242.972656 226.542969 234.351562 226.542969 C 225.730469 226.542969 218.734375 219.546875 218.734375 210.925781 C 218.734375 202.304688 225.730469 195.308594 234.351562 195.308594 Z M 234.351562 195.308594 " fill-opacity="1" fill-rule="nonzero"/></g></svg>