<svg xmlns="http://www.w3.org/2000/svg" xmlns:xlink="http://www.w3.org/1999/xlink" width="500" zoomAndPan="magnify" viewBox="0 0 375 374.999991" height="500" preserveAspectRatio="xMidYMid meet" version="1.0"><defs><clipPath id="ec0095bd39"><path d="M 129.699219 199.277344 L 366.53125 199.277344 L 366.53125 372.558594 L 129.699219 372.558594 Z M 129.699219 199.277344 " clip-rule="nonzero"/></clipPath><clipPath id="e3d17106ed"><path d="M 201.65625 10.824219 L 374.960938 10.824219 L 374.960938 247.65625 L 201.65625 247.65625 Z M 201.65625 10.824219 " clip-rule="nonzero"/></clipPath><clipPath id="d1508ed9ec"><path d="M 129.699219 199.277344 L 366.53125 199.277344 L 366.53125 372.558594 L 129.699219 372.558594 Z M 129.699219 199.277344 " clip-rule="nonzero"/></clipPath><clipPath id="f3ea621bb7"><path d="M 201.65625 10.824219 L 374.960938 10.824219 L 374.960938 247.65625 L 201.65625 247.65625 Z M 201.65625 10.824219 " clip-rule="nonzero"/></clipPath></defs><path fill="#059669" d="M 45.488281 3.566406 L 45.488281 61.242188 C 36.816406 62.390625 27.726562 59.640625 21.066406 52.976562 C 9.707031 41.617188 9.707031 23.191406 21.066406 11.832031 C 27.726562 5.167969 36.816406 2.417969 45.488281 3.566406 Z M 32.320312 70.988281 L 32.75 70.558594 C 36.847656 72.082031 41.167969 72.847656 45.488281 72.855469 L 45.488281 142.703125 L 32.320312 129.535156 C 16.21875 113.433594 16.21875 87.085938 32.320312 70.988281 Z M 45.488281 61.242188 C 51.605469 60.429688 57.515625 57.675781 62.214844 52.976562 C 73.574219 41.617188 73.574219 23.191406 62.214844 11.832031 C 57.515625 7.132812 51.605469 4.378906 45.488281 3.566406 Z M 45.488281 72.855469 C 54.859375 72.867188 64.238281 69.296875 71.386719 62.148438 C 81.828125 51.703125 84.632812 36.507812 79.792969 23.511719 L 80.222656 23.082031 C 96.324219 6.984375 122.667969 6.984375 138.769531 23.082031 L 249.085938 133.398438 L 205.902344 176.585938 L 134.125 104.808594 L 70.859375 168.074219 L 45.488281 142.703125 L 45.488281 72.855469 " fill-opacity="1" fill-rule="evenodd"/><g clip-path="url(#ec0095bd39)"><path fill="#059669" d="M 333.425781 314.628906 C 327.3125 315.441406 321.402344 318.195312 316.703125 322.894531 C 305.34375 334.253906 305.34375 352.679688 316.703125 364.039062 C 321.402344 368.738281 327.3125 371.492188 333.425781 372.304688 Z M 333.425781 303.015625 C 324.054688 303.003906 314.679688 306.574219 307.53125 313.722656 C 297.085938 324.164062 294.285156 339.363281 299.125 352.355469 L 298.691406 352.785156 C 282.59375 368.890625 256.246094 368.890625 240.144531 352.785156 L 129.828125 242.46875 L 173.011719 199.285156 L 244.789062 271.0625 L 308.054688 207.796875 L 333.425781 233.167969 Z M 333.425781 372.304688 L 333.425781 314.628906 C 342.097656 313.480469 351.1875 316.234375 357.851562 322.894531 C 369.210938 334.253906 369.210938 352.679688 357.851562 364.039062 C 351.1875 370.703125 342.097656 373.453125 333.425781 372.304688 Z M 346.597656 304.882812 L 346.167969 305.316406 C 342.066406 303.789062 337.746094 303.023438 333.425781 303.015625 L 333.425781 233.167969 L 346.597656 246.335938 C 362.699219 262.4375 362.699219 288.785156 346.597656 304.882812 " fill-opacity="1" fill-rule="evenodd"/></g><path fill="#059669" d="M 35.839844 309.554688 L 35.839844 367.226562 C 27.167969 368.378906 18.078125 365.625 11.417969 358.964844 C 0.0585938 347.605469 0.0585938 329.179688 11.417969 317.816406 C 18.078125 311.15625 27.167969 308.402344 35.839844 309.554688 Z M 35.839844 297.941406 C 31.519531 297.945312 27.199219 298.710938 23.101562 300.238281 L 22.667969 299.808594 C 6.570312 283.710938 6.570312 257.363281 22.667969 241.261719 L 35.839844 228.089844 Z M 35.839844 367.226562 C 41.957031 366.417969 47.867188 363.664062 52.566406 358.964844 C 63.925781 347.605469 63.925781 329.179688 52.5625 317.816406 C 47.863281 313.117188 41.957031 310.363281 35.839844 309.554688 Z M 70.574219 347.710938 L 70.144531 347.28125 C 74.980469 334.289062 72.179688 319.089844 61.734375 308.644531 C 54.585938 301.496094 45.210938 297.929688 35.839844 297.941406 L 35.839844 228.089844 L 132.988281 130.945312 L 176.171875 174.128906 L 104.394531 245.90625 L 167.660156 309.171875 L 129.121094 347.710938 C 113.019531 363.8125 86.671875 363.8125 70.574219 347.710938 " fill-opacity="1" fill-rule="evenodd"/><g clip-path="url(#e3d17106ed)"><path fill="#059669" d="M 342.019531 11.242188 C 335.902344 12.054688 329.992188 14.808594 325.292969 19.507812 C 313.933594 30.867188 313.933594 49.292969 325.292969 60.652344 C 329.992188 65.355469 335.902344 68.105469 342.019531 68.917969 Z M 307.285156 30.757812 L 307.714844 31.191406 C 302.875 44.183594 305.675781 59.382812 316.121094 69.828125 C 323.269531 76.976562 332.644531 80.542969 342.019531 80.53125 L 342.019531 150.378906 L 244.871094 247.527344 L 201.6875 204.34375 L 273.460938 132.566406 L 210.195312 69.300781 L 248.734375 30.757812 C 264.835938 14.660156 291.183594 14.660156 307.285156 30.757812 Z M 342.019531 68.917969 L 342.019531 11.242188 C 350.6875 10.09375 359.777344 12.847656 366.441406 19.507812 C 377.800781 30.867188 377.800781 49.292969 366.441406 60.652344 C 359.777344 67.316406 350.6875 70.070312 342.019531 68.917969 Z M 342.019531 80.53125 C 346.339844 80.523438 350.660156 79.757812 354.757812 78.234375 L 355.1875 78.664062 C 371.289062 94.765625 371.289062 121.109375 355.1875 137.210938 L 342.019531 150.378906 L 342.019531 80.53125 " fill-opacity="1" fill-rule="evenodd"/></g><path fill="#059669" d="M 45.488281 3.566406 L 45.488281 61.242188 C 36.816406 62.390625 27.726562 59.640625 21.066406 52.976562 C 9.707031 41.617188 9.707031 23.191406 21.066406 11.832031 C 27.726562 5.167969 36.816406 2.417969 45.488281 3.566406 Z M 32.320312 70.988281 L 32.75 70.558594 C 36.847656 72.082031 41.167969 72.847656 45.488281 72.855469 L 45.488281 142.703125 L 32.320312 129.535156 C 16.21875 113.433594 16.21875 87.085938 32.320312 70.988281 Z M 45.488281 61.242188 C 51.605469 60.429688 57.515625 57.675781 62.214844 52.976562 C 73.574219 41.617188 73.574219 23.191406 62.214844 11.832031 C 57.515625 7.132812 51.605469 4.378906 45.488281 3.566406 Z M 45.488281 72.855469 C 54.859375 72.867188 64.238281 69.296875 71.386719 62.148438 C 81.828125 51.703125 84.632812 36.507812 79.792969 23.511719 L 80.222656 23.082031 C 96.324219 6.984375 122.667969 6.984375 138.769531 23.082031 L 249.085938 133.398438 L 205.902344 176.585938 L 134.125 104.808594 L 70.859375 168.074219 L 45.488281 142.703125 L 45.488281 72.855469 " fill-opacity="1" fill-rule="evenodd"/><g clip-path="url(#d1508ed9ec)"><path fill="#059669" d="M 333.425781 314.628906 C 327.3125 315.441406 321.402344 318.195312 316.703125 322.894531 C 305.34375 334.253906 305.34375 352.679688 316.703125 364.039062 C 321.402344 368.738281 327.3125 371.492188 333.425781 372.304688 Z M 333.425781 303.015625 C 324.054688 303.003906 314.679688 306.574219 307.53125 313.722656 C 297.085938 324.164062 294.285156 339.363281 299.125 352.355469 L 298.691406 352.785156 C 282.59375 368.890625 256.246094 368.890625 240.144531 352.785156 L 129.828125 242.46875 L 173.011719 199.285156 L 244.789062 271.0625 L 308.054688 207.796875 L 333.425781 233.167969 Z M 333.425781 372.304688 L 333.425781 314.628906 C 342.097656 313.480469 351.1875 316.234375 357.851562 322.894531 C 369.210938 334.253906 369.210938 352.679688 357.851562 364.039062 C 351.1875 370.703125 342.097656 373.453125 333.425781 372.304688 Z M 346.597656 304.882812 L 346.167969 305.316406 C 342.066406 303.789062 337.746094 303.023438 333.425781 303.015625 L 333.425781 233.167969 L 346.597656 246.335938 C 362.699219 262.4375 362.699219 288.785156 346.597656 304.882812 " fill-opacity="1" fill-rule="evenodd"/></g><path fill="#059669" d="M 35.839844 309.554688 L 35.839844 367.226562 C 27.167969 368.378906 18.078125 365.625 11.417969 358.964844 C 0.0585938 347.605469 0.0585938 329.179688 11.417969 317.816406 C 18.078125 311.15625 27.167969 308.402344 35.839844 309.554688 Z M 35.839844 297.941406 C 31.519531 297.945312 27.199219 298.710938 23.101562 300.238281 L 22.667969 299.808594 C 6.570312 283.710938 6.570312 257.363281 22.667969 241.261719 L 35.839844 228.089844 Z M 35.839844 367.226562 C 41.957031 366.417969 47.867188 363.664062 52.566406 358.964844 C 63.925781 347.605469 63.925781 329.179688 52.5625 317.816406 C 47.863281 313.117188 41.957031 310.363281 35.839844 309.554688 Z M 70.574219 347.710938 L 70.144531 347.28125 C 74.980469 334.289062 72.179688 319.089844 61.734375 308.644531 C 54.585938 301.496094 45.210938 297.929688 35.839844 297.941406 L 35.839844 228.089844 L 132.988281 130.945312 L 176.171875 174.128906 L 104.394531 245.90625 L 167.660156 309.171875 L 129.121094 347.710938 C 113.019531 363.8125 86.671875 363.8125 70.574219 347.710938 " fill-opacity="1" fill-rule="evenodd"/><g clip-path="url(#f3ea621bb7)"><path fill="#059669" d="M 342.019531 11.242188 C 335.902344 12.054688 329.992188 14.808594 325.292969 19.507812 C 313.933594 30.867188 313.933594 49.292969 325.292969 60.652344 C 329.992188 65.355469 335.902344 68.105469 342.019531 68.917969 Z M 307.285156 30.757812 L 307.714844 31.191406 C 302.875 44.183594 305.675781 59.382812 316.121094 69.828125 C 323.269531 76.976562 332.644531 80.542969 342.019531 80.53125 L 342.019531 150.378906 L 244.871094 247.527344 L 201.6875 204.34375 L 273.460938 132.566406 L 210.195312 69.300781 L 248.734375 30.757812 C 264.835938 14.660156 291.183594 14.660156 307.285156 30.757812 Z M 342.019531 68.917969 L 342.019531 11.242188 C 350.6875 10.09375 359.777344 12.847656 366.441406 19.507812 C 377.800781 30.867188 377.800781 49.292969 366.441406 60.652344 C 359.777344 67.316406 350.6875 70.070312 342.019531 68.917969 Z M 342.019531 80.53125 C 346.339844 80.523438 350.660156 79.757812 354.757812 78.234375 L 355.1875 78.664062 C 371.289062 94.765625 371.289062 121.109375 355.1875 137.210938 L 342.019531 150.378906 L 342.019531 80.53125 " fill-opacity="1" fill-rule="evenodd"/></g></svg>