<svg xmlns="http://www.w3.org/2000/svg" xmlns:xlink="http://www.w3.org/1999/xlink" width="500" zoomAndPan="magnify" viewBox="0 0 375 374.999991" height="500" preserveAspectRatio="xMidYMid meet" version="1.0"><defs><clipPath id="d055df93ea"><path d="M 24.375 0 L 350.625 0 L 350.625 375 L 24.375 375 Z M 24.375 0 " clip-rule="nonzero"/></clipPath></defs><g clip-path="url(#d055df93ea)"><path fill="#17191a" d="M 230.871094 185.378906 C 232.503906 184.574219 234.113281 183.71875 235.699219 182.820312 C 237.285156 181.921875 238.84375 180.980469 240.378906 179.996094 C 241.910156 179.011719 243.417969 177.984375 244.894531 176.914062 C 246.367188 175.84375 247.8125 174.734375 249.226562 173.585938 C 250.640625 172.433594 252.023438 171.246094 253.371094 170.019531 C 254.71875 168.792969 256.03125 167.527344 257.308594 166.226562 C 258.582031 164.925781 259.824219 163.589844 261.027344 162.222656 C 262.226562 160.851562 263.390625 159.449219 264.515625 158.015625 C 265.640625 156.578125 266.722656 155.113281 267.765625 153.617188 C 268.804688 152.125 269.804688 150.601562 270.761719 149.046875 C 271.71875 147.496094 272.632812 145.921875 273.5 144.316406 C 274.367188 142.714844 275.191406 141.089844 275.96875 139.441406 C 276.75 137.792969 277.480469 136.125 278.164062 134.4375 C 278.847656 132.746094 279.484375 131.039062 280.074219 129.316406 C 280.664062 127.589844 281.203125 125.851562 281.695312 124.09375 C 282.1875 122.339844 282.628906 120.574219 283.023438 118.792969 C 283.417969 117.011719 283.761719 115.222656 284.054688 113.425781 C 284.347656 111.625 284.589844 109.820312 284.78125 108.007812 C 284.972656 106.195312 285.113281 104.378906 285.207031 102.558594 C 285.296875 100.738281 285.335938 98.914062 285.324219 97.09375 C 285.3125 95.269531 285.25 93.449219 285.136719 91.628906 C 285.023438 89.8125 284.863281 87.996094 284.648438 86.1875 C 284.433594 84.375 284.167969 82.574219 283.851562 80.777344 C 283.539062 78.984375 283.171875 77.199219 282.757812 75.425781 C 282.34375 73.648438 281.878906 71.886719 281.363281 70.136719 C 280.851562 68.390625 280.289062 66.65625 279.679688 64.9375 C 279.070312 63.222656 278.410156 61.523438 277.707031 59.839844 C 277 58.160156 276.25 56.5 275.453125 54.863281 C 274.652344 53.222656 273.808594 51.609375 272.921875 50.015625 C 272.035156 48.425781 271.101562 46.859375 270.125 45.320312 C 269.148438 43.78125 268.132812 42.269531 267.070312 40.789062 C 266.011719 39.304688 264.910156 37.851562 263.769531 36.433594 C 262.628906 35.011719 261.449219 33.621094 260.230469 32.269531 C 259.007812 30.914062 257.753906 29.59375 256.460938 28.308594 C 255.167969 27.023438 253.839844 25.777344 252.476562 24.566406 C 251.117188 23.355469 249.71875 22.183594 248.292969 21.050781 C 246.863281 19.917969 245.40625 18.824219 243.917969 17.773438 C 242.425781 16.722656 240.910156 15.714844 239.363281 14.746094 C 237.820312 13.78125 236.25 12.859375 234.652344 11.980469 C 233.054688 11.101562 231.433594 10.269531 229.789062 9.480469 C 228.148438 8.691406 226.484375 7.953125 224.796875 7.257812 C 223.113281 6.5625 221.410156 5.914062 219.6875 5.316406 C 217.96875 4.714844 216.230469 4.164062 214.480469 3.660156 C 212.726562 3.160156 210.960938 2.703125 209.183594 2.300781 C 207.40625 1.898438 205.621094 1.542969 203.824219 1.238281 C 202.027344 0.933594 200.222656 0.679688 198.410156 0.476562 C 196.597656 0.273438 194.785156 0.121094 192.964844 0.0195312 C 191.144531 -0.0820312 189.324219 -0.132812 187.5 -0.132812 C 185.675781 -0.132812 183.855469 -0.0820312 182.035156 0.0195312 C 180.214844 0.121094 178.402344 0.273438 176.589844 0.476562 C 174.777344 0.679688 172.972656 0.933594 171.175781 1.238281 C 169.378906 1.542969 167.59375 1.898438 165.816406 2.300781 C 164.039062 2.703125 162.273438 3.160156 160.519531 3.660156 C 158.769531 4.164062 157.03125 4.714844 155.3125 5.316406 C 153.589844 5.914062 151.886719 6.5625 150.203125 7.257812 C 148.515625 7.953125 146.851562 8.691406 145.210938 9.480469 C 143.566406 10.269531 141.945312 11.101562 140.347656 11.980469 C 138.75 12.859375 137.179688 13.78125 135.636719 14.746094 C 134.089844 15.714844 132.574219 16.722656 131.082031 17.773438 C 129.59375 18.824219 128.136719 19.917969 126.707031 21.050781 C 125.28125 22.183594 123.882812 23.355469 122.523438 24.566406 C 121.160156 25.777344 119.832031 27.023438 118.539062 28.308594 C 117.246094 29.59375 115.992188 30.914062 114.769531 32.269531 C 113.550781 33.621094 112.371094 35.011719 111.230469 36.433594 C 110.089844 37.851562 108.988281 39.304688 107.929688 40.789062 C 106.867188 42.269531 105.851562 43.78125 104.875 45.320312 C 103.898438 46.859375 102.964844 48.425781 102.078125 50.015625 C 101.191406 51.609375 100.347656 53.222656 99.546875 54.863281 C 98.75 56.5 98 58.160156 97.292969 59.839844 C 96.589844 61.523438 95.929688 63.222656 95.320312 64.9375 C 94.710938 66.65625 94.148438 68.390625 93.636719 70.136719 C 93.121094 71.886719 92.65625 73.648438 92.242188 75.425781 C 91.828125 77.199219 91.460938 78.984375 91.148438 80.777344 C 90.832031 82.574219 90.566406 84.375 90.351562 86.1875 C 90.136719 87.996094 89.976562 89.8125 89.863281 91.628906 C 89.75 93.449219 89.6875 95.269531 89.675781 97.09375 C 89.664062 98.914062 89.703125 100.738281 89.796875 102.558594 C 89.886719 104.378906 90.027344 106.195312 90.21875 108.007812 C 90.410156 109.820312 90.652344 111.625 90.945312 113.425781 C 91.238281 115.222656 91.582031 117.011719 91.976562 118.792969 C 92.371094 120.574219 92.8125 122.339844 93.304688 124.09375 C 93.796875 125.851562 94.335938 127.589844 94.925781 129.316406 C 95.515625 131.039062 96.152344 132.746094 96.835938 134.4375 C 97.519531 136.125 98.25 137.792969 99.03125 139.441406 C 99.808594 141.089844 100.632812 142.714844 101.5 144.316406 C 102.367188 145.921875 103.28125 147.496094 104.238281 149.046875 C 105.195312 150.601562 106.195312 152.125 107.234375 153.617188 C 108.277344 155.113281 109.359375 156.578125 110.484375 158.015625 C 111.609375 159.449219 112.773438 160.851562 113.972656 162.222656 C 115.175781 163.589844 116.417969 164.925781 117.691406 166.226562 C 118.96875 167.527344 120.28125 168.792969 121.628906 170.019531 C 122.976562 171.246094 124.359375 172.433594 125.773438 173.585938 C 127.1875 174.734375 128.632812 175.84375 130.105469 176.914062 C 131.582031 177.984375 133.089844 179.011719 134.621094 179.996094 C 136.15625 180.980469 137.714844 181.921875 139.300781 182.820312 C 140.886719 183.71875 142.496094 184.574219 144.128906 185.378906 C 142 185.96875 139.882812 186.597656 137.78125 187.273438 C 135.675781 187.945312 133.585938 188.664062 131.511719 189.421875 C 129.4375 190.179688 127.378906 190.980469 125.335938 191.820312 C 123.292969 192.664062 121.269531 193.546875 119.261719 194.472656 C 117.257812 195.398438 115.269531 196.363281 113.304688 197.367188 C 111.335938 198.371094 109.390625 199.417969 107.464844 200.503906 C 105.539062 201.585938 103.636719 202.710938 101.757812 203.871094 C 99.878906 205.03125 98.027344 206.234375 96.195312 207.46875 C 94.363281 208.707031 92.5625 209.980469 90.78125 211.292969 C 89.003906 212.601562 87.253906 213.949219 85.527344 215.328125 C 83.804688 216.710938 82.109375 218.128906 80.445312 219.578125 C 78.777344 221.027344 77.140625 222.511719 75.535156 224.027344 C 73.929688 225.546875 72.355469 227.09375 70.8125 228.675781 C 69.269531 230.257812 67.757812 231.871094 66.28125 233.511719 C 64.804688 235.152344 63.359375 236.824219 61.953125 238.527344 C 60.542969 240.226562 59.167969 241.957031 57.828125 243.714844 C 56.488281 245.472656 55.1875 247.253906 53.917969 249.066406 C 52.652344 250.875 51.421875 252.710938 50.230469 254.570312 C 49.039062 256.429688 47.886719 258.3125 46.769531 260.21875 C 45.65625 262.125 44.578125 264.054688 43.542969 266.003906 C 42.503906 267.957031 41.507812 269.925781 40.550781 271.917969 C 39.59375 273.910156 38.675781 275.917969 37.800781 277.949219 C 36.925781 279.976562 36.09375 282.019531 35.300781 284.082031 C 34.507812 286.144531 33.757812 288.222656 33.050781 290.316406 C 32.34375 292.410156 31.675781 294.515625 31.054688 296.632812 C 30.433594 298.753906 29.855469 300.886719 29.320312 303.027344 C 28.785156 305.171875 28.292969 307.324219 27.84375 309.488281 C 27.394531 311.652344 26.992188 313.824219 26.632812 316.003906 C 26.273438 318.183594 25.957031 320.371094 25.6875 322.5625 C 25.414062 324.753906 25.1875 326.953125 25.007812 329.152344 C 24.828125 331.355469 24.691406 333.558594 24.597656 335.765625 C 24.503906 337.972656 24.457031 340.183594 24.457031 342.390625 L 24.457031 358.695312 C 24.457031 359.230469 24.484375 359.761719 24.535156 360.292969 C 24.585938 360.824219 24.664062 361.351562 24.769531 361.875 C 24.875 362.398438 25.003906 362.917969 25.160156 363.429688 C 25.3125 363.941406 25.492188 364.441406 25.699219 364.933594 C 25.902344 365.429688 26.128906 365.910156 26.382812 366.382812 C 26.632812 366.851562 26.90625 367.308594 27.203125 367.753906 C 27.5 368.199219 27.820312 368.625 28.15625 369.039062 C 28.496094 369.453125 28.855469 369.847656 29.230469 370.222656 C 29.609375 370.601562 30.003906 370.960938 30.417969 371.300781 C 30.832031 371.636719 31.257812 371.957031 31.703125 372.253906 C 32.148438 372.546875 32.605469 372.824219 33.074219 373.074219 C 33.546875 373.328125 34.027344 373.554688 34.519531 373.757812 C 35.015625 373.964844 35.515625 374.144531 36.027344 374.296875 C 36.539062 374.453125 37.054688 374.582031 37.578125 374.6875 C 38.105469 374.789062 38.632812 374.867188 39.164062 374.921875 C 39.695312 374.972656 40.226562 375 40.761719 375 L 334.238281 375 C 334.773438 375 335.304688 374.972656 335.835938 374.921875 C 336.367188 374.867188 336.894531 374.789062 337.417969 374.6875 C 337.945312 374.582031 338.460938 374.453125 338.972656 374.296875 C 339.484375 374.144531 339.984375 373.964844 340.476562 373.757812 C 340.972656 373.554688 341.453125 373.328125 341.925781 373.074219 C 342.394531 372.824219 342.851562 372.546875 343.296875 372.253906 C 343.742188 371.957031 344.167969 371.636719 344.582031 371.300781 C 344.996094 370.960938 345.390625 370.601562 345.769531 370.222656 C 346.144531 369.847656 346.503906 369.453125 346.84375 369.039062 C 347.179688 368.625 347.5 368.199219 347.796875 367.753906 C 348.09375 367.308594 348.367188 366.851562 348.617188 366.382812 C 348.871094 365.910156 349.097656 365.429688 349.300781 364.933594 C 349.507812 364.441406 349.6875 363.941406 349.839844 363.429688 C 349.996094 362.917969 350.125 362.398438 350.230469 361.875 C 350.335938 361.351562 350.414062 360.824219 350.464844 360.292969 C 350.515625 359.761719 350.542969 359.230469 350.542969 358.695312 L 350.542969 342.390625 C 350.542969 340.183594 350.496094 337.972656 350.402344 335.765625 C 350.308594 333.558594 350.171875 331.355469 349.992188 329.152344 C 349.8125 326.953125 349.585938 324.753906 349.3125 322.5625 C 349.042969 320.371094 348.726562 318.183594 348.367188 316.003906 C 348.007812 313.824219 347.605469 311.652344 347.15625 309.488281 C 346.707031 307.324219 346.214844 305.171875 345.679688 303.027344 C 345.144531 300.886719 344.566406 298.753906 343.945312 296.632812 C 343.324219 294.515625 342.65625 292.410156 341.949219 290.316406 C 341.242188 288.222656 340.492188 286.144531 339.699219 284.082031 C 338.90625 282.019531 338.074219 279.976562 337.199219 277.949219 C 336.324219 275.917969 335.40625 273.910156 334.449219 271.917969 C 333.492188 269.925781 332.496094 267.957031 331.460938 266.003906 C 330.421875 264.054688 329.34375 262.125 328.230469 260.21875 C 327.113281 258.3125 325.960938 256.429688 324.769531 254.570312 C 323.578125 252.710938 322.347656 250.875 321.082031 249.066406 C 319.8125 247.253906 318.511719 245.472656 317.171875 243.714844 C 315.832031 241.957031 314.457031 240.226562 313.046875 238.527344 C 311.640625 236.824219 310.195312 235.152344 308.71875 233.511719 C 307.242188 231.871094 305.730469 230.257812 304.1875 228.675781 C 302.644531 227.09375 301.070312 225.546875 299.464844 224.027344 C 297.859375 222.511719 296.222656 221.027344 294.554688 219.578125 C 292.890625 218.128906 291.195312 216.710938 289.472656 215.328125 C 287.746094 213.949219 285.996094 212.601562 284.21875 211.292969 C 282.4375 209.980469 280.632812 208.707031 278.804688 207.46875 C 276.972656 206.234375 275.121094 205.03125 273.242188 203.871094 C 271.363281 202.710938 269.460938 201.585938 267.535156 200.503906 C 265.609375 199.417969 263.664062 198.371094 261.695312 197.367188 C 259.730469 196.363281 257.742188 195.398438 255.738281 194.472656 C 253.730469 193.546875 251.707031 192.664062 249.664062 191.820312 C 247.621094 190.980469 245.5625 190.179688 243.488281 189.421875 C 241.414062 188.664062 239.324219 187.945312 237.21875 187.273438 C 235.117188 186.597656 233 185.96875 230.871094 185.378906 Z M 230.871094 185.378906 " fill-opacity="1" fill-rule="nonzero"/><path fill="#17191a" d="M 230.871094 185.378906 C 232.503906 184.574219 234.113281 183.71875 235.699219 182.820312 C 237.285156 181.921875 238.84375 180.980469 240.378906 179.996094 C 241.910156 179.011719 243.417969 177.984375 244.894531 176.914062 C 246.367188 175.84375 247.8125 174.734375 249.226562 173.585938 C 250.640625 172.433594 252.023438 171.246094 253.371094 170.019531 C 254.71875 168.792969 256.03125 167.527344 257.308594 166.226562 C 258.582031 164.925781 259.824219 163.589844 261.027344 162.222656 C 262.226562 160.851562 263.390625 159.449219 264.515625 158.015625 C 265.640625 156.578125 266.722656 155.113281 267.765625 153.617188 C 268.804688 152.125 269.804688 150.601562 270.761719 149.046875 C 271.71875 147.496094 272.632812 145.921875 273.5 144.316406 C 274.367188 142.714844 275.191406 141.089844 275.96875 139.441406 C 276.75 137.792969 277.480469 136.125 278.164062 134.4375 C 278.847656 132.746094 279.484375 131.039062 280.074219 129.316406 C 280.664062 127.589844 281.203125 125.851562 281.695312 124.09375 C 282.1875 122.339844 282.628906 120.574219 283.023438 118.792969 C 283.417969 117.011719 283.761719 115.222656 284.054688 113.425781 C 284.347656 111.625 284.589844 109.820312 284.78125 108.007812 C 284.972656 106.195312 285.113281 104.378906 285.207031 102.558594 C 285.296875 100.738281 285.335938 98.914062 285.324219 97.09375 C 285.3125 95.269531 285.25 93.449219 285.136719 91.628906 C 285.023438 89.8125 284.863281 87.996094 284.648438 86.1875 C 284.433594 84.375 284.167969 82.574219 283.851562 80.777344 C 283.539062 78.984375 283.171875 77.199219 282.757812 75.425781 C 282.34375 73.648438 281.878906 71.886719 281.363281 70.136719 C 280.851562 68.390625 280.289062 66.65625 279.679688 64.9375 C 279.070312 63.222656 278.410156 61.523438 277.707031 59.839844 C 277 58.160156 276.25 56.5 275.453125 54.863281 C 274.652344 53.222656 273.808594 51.609375 272.921875 50.015625 C 272.035156 48.425781 271.101562 46.859375 270.125 45.320312 C 269.148438 43.78125 268.132812 42.269531 267.070312 40.789062 C 266.011719 39.304688 264.910156 37.851562 263.769531 36.433594 C 262.628906 35.011719 261.449219 33.621094 260.230469 32.269531 C 259.007812 30.914062 257.753906 29.59375 256.460938 28.308594 C 255.167969 27.023438 253.839844 25.777344 252.476562 24.566406 C 251.117188 23.355469 249.71875 22.183594 248.292969 21.050781 C 246.863281 19.917969 245.40625 18.824219 243.917969 17.773438 C 242.425781 16.722656 240.910156 15.714844 239.363281 14.746094 C 237.820312 13.78125 236.25 12.859375 234.652344 11.980469 C 233.054688 11.101562 231.433594 10.269531 229.789062 9.480469 C 228.148438 8.691406 226.484375 7.953125 224.796875 7.257812 C 223.113281 6.5625 221.410156 5.914062 219.6875 5.316406 C 217.96875 4.714844 216.230469 4.164062 214.480469 3.660156 C 212.726562 3.160156 210.960938 2.703125 209.183594 2.300781 C 207.40625 1.898438 205.621094 1.542969 203.824219 1.238281 C 202.027344 0.933594 200.222656 0.679688 198.410156 0.476562 C 196.597656 0.273438 194.785156 0.121094 192.964844 0.0195312 C 191.144531 -0.0820312 189.324219 -0.132812 187.5 -0.132812 C 185.675781 -0.132812 183.855469 -0.0820312 182.035156 0.0195312 C 180.214844 0.121094 178.402344 0.273438 176.589844 0.476562 C 174.777344 0.679688 172.972656 0.933594 171.175781 1.238281 C 169.378906 1.542969 167.59375 1.898438 165.816406 2.300781 C 164.039062 2.703125 162.273438 3.160156 160.519531 3.660156 C 158.769531 4.164062 157.03125 4.714844 155.3125 5.316406 C 153.589844 5.914062 151.886719 6.5625 150.203125 7.257812 C 148.515625 7.953125 146.851562 8.691406 145.210938 9.480469 C 143.566406 10.269531 141.945312 11.101562 140.347656 11.980469 C 138.75 12.859375 137.179688 13.78125 135.636719 14.746094 C 134.089844 15.714844 132.574219 16.722656 131.082031 17.773438 C 129.59375 18.824219 128.136719 19.917969 126.707031 21.050781 C 125.28125 22.183594 123.882812 23.355469 122.523438 24.566406 C 121.160156 25.777344 119.832031 27.023438 118.539062 28.308594 C 117.246094 29.59375 115.992188 30.914062 114.769531 32.269531 C 113.550781 33.621094 112.371094 35.011719 111.230469 36.433594 C 110.089844 37.851562 108.988281 39.304688 107.929688 40.789062 C 106.867188 42.269531 105.851562 43.78125 104.875 45.320312 C 103.898438 46.859375 102.964844 48.425781 102.078125 50.015625 C 101.191406 51.609375 100.347656 53.222656 99.546875 54.863281 C 98.75 56.5 98 58.160156 97.292969 59.839844 C 96.589844 61.523438 95.929688 63.222656 95.320312 64.9375 C 94.710938 66.65625 94.148438 68.390625 93.636719 70.136719 C 93.121094 71.886719 92.65625 73.648438 92.242188 75.425781 C 91.828125 77.199219 91.460938 78.984375 91.148438 80.777344 C 90.832031 82.574219 90.566406 84.375 90.351562 86.1875 C 90.136719 87.996094 89.976562 89.8125 89.863281 91.628906 C 89.75 93.449219 89.6875 95.269531 89.675781 97.09375 C 89.664062 98.914062 89.703125 100.738281 89.796875 102.558594 C 89.886719 104.378906 90.027344 106.195312 90.21875 108.007812 C 90.410156 109.820312 90.652344 111.625 90.945312 113.425781 C 91.238281 115.222656 91.582031 117.011719 91.976562 118.792969 C 92.371094 120.574219 92.8125 122.339844 93.304688 124.09375 C 93.796875 125.851562 94.335938 127.589844 94.925781 129.316406 C 95.515625 131.039062 96.152344 132.746094 96.835938 134.4375 C 97.519531 136.125 98.25 137.792969 99.03125 139.441406 C 99.808594 141.089844 100.632812 142.714844 101.5 144.316406 C 102.367188 145.921875 103.28125 147.496094 104.238281 149.046875 C 105.195312 150.601562 106.195312 152.125 107.234375 153.617188 C 108.277344 155.113281 109.359375 156.578125 110.484375 158.015625 C 111.609375 159.449219 112.773438 160.851562 113.972656 162.222656 C 115.175781 163.589844 116.417969 164.925781 117.691406 166.226562 C 118.96875 167.527344 120.28125 168.792969 121.628906 170.019531 C 122.976562 171.246094 124.359375 172.433594 125.773438 173.585938 C 127.1875 174.734375 128.632812 175.84375 130.105469 176.914062 C 131.582031 177.984375 133.089844 179.011719 134.621094 179.996094 C 136.15625 180.980469 137.714844 181.921875 139.300781 182.820312 C 140.886719 183.71875 142.496094 184.574219 144.128906 185.378906 C 142 185.96875 139.882812 186.597656 137.78125 187.273438 C 135.675781 187.945312 133.585938 188.664062 131.511719 189.421875 C 129.4375 190.179688 127.378906 190.980469 125.335938 191.820312 C 123.292969 192.664062 121.269531 193.546875 119.261719 194.472656 C 117.257812 195.398438 115.269531 196.363281 113.304688 197.367188 C 111.335938 198.371094 109.390625 199.417969 107.464844 200.503906 C 105.539062 201.585938 103.636719 202.710938 101.757812 203.871094 C 99.878906 205.03125 98.027344 206.234375 96.195312 207.46875 C 94.363281 208.707031 92.5625 209.980469 90.78125 211.292969 C 89.003906 212.601562 87.253906 213.949219 85.527344 215.328125 C 83.804688 216.710938 82.109375 218.128906 80.445312 219.578125 C 78.777344 221.027344 77.140625 222.511719 75.535156 224.027344 C 73.929688 225.546875 72.355469 227.09375 70.8125 228.675781 C 69.269531 230.257812 67.757812 231.871094 66.28125 233.511719 C 64.804688 235.152344 63.359375 236.824219 61.953125 238.527344 C 60.542969 240.226562 59.167969 241.957031 57.828125 243.714844 C 56.488281 245.472656 55.1875 247.253906 53.917969 249.066406 C 52.652344 250.875 51.421875 252.710938 50.230469 254.570312 C 49.039062 256.429688 47.886719 258.3125 46.769531 260.21875 C 45.65625 262.125 44.578125 264.054688 43.542969 266.003906 C 42.503906 267.957031 41.507812 269.925781 40.550781 271.917969 C 39.59375 273.910156 38.675781 275.917969 37.800781 277.949219 C 36.925781 279.976562 36.09375 282.019531 35.300781 284.082031 C 34.507812 286.144531 33.757812 288.222656 33.050781 290.316406 C 32.34375 292.410156 31.675781 294.515625 31.054688 296.632812 C 30.433594 298.753906 29.855469 300.886719 29.320312 303.027344 C 28.785156 305.171875 28.292969 307.324219 27.84375 309.488281 C 27.394531 311.652344 26.992188 313.824219 26.632812 316.003906 C 26.273438 318.183594 25.957031 320.371094 25.6875 322.5625 C 25.414062 324.753906 25.1875 326.953125 25.007812 329.152344 C 24.828125 331.355469 24.691406 333.558594 24.597656 335.765625 C 24.503906 337.972656 24.457031 340.183594 24.457031 342.390625 L 24.457031 358.695312 C 24.457031 359.230469 24.484375 359.761719 24.535156 360.292969 C 24.585938 360.824219 24.664062 361.351562 24.769531 361.875 C 24.875 362.398438 25.003906 362.917969 25.160156 363.429688 C 25.3125 363.941406 25.492188 364.441406 25.699219 364.933594 C 25.902344 365.429688 26.128906 365.910156 26.382812 366.382812 C 26.632812 366.851562 26.90625 367.308594 27.203125 367.753906 C 27.5 368.199219 27.820312 368.625 28.15625 369.039062 C 28.496094 369.453125 28.855469 369.847656 29.230469 370.222656 C 29.609375 370.601562 30.003906 370.960938 30.417969 371.300781 C 30.832031 371.636719 31.257812 371.957031 31.703125 372.253906 C 32.148438 372.546875 32.605469 372.824219 33.074219 373.074219 C 33.546875 373.328125 34.027344 373.554688 34.519531 373.757812 C 35.015625 373.964844 35.515625 374.144531 36.027344 374.296875 C 36.539062 374.453125 37.054688 374.582031 37.578125 374.6875 C 38.105469 374.789062 38.632812 374.867188 39.164062 374.921875 C 39.695312 374.972656 40.226562 375 40.761719 375 L 334.238281 375 C 334.773438 375 335.304688 374.972656 335.835938 374.921875 C 336.367188 374.867188 336.894531 374.789062 337.417969 374.6875 C 337.945312 374.582031 338.460938 374.453125 338.972656 374.296875 C 339.484375 374.144531 339.984375 373.964844 340.476562 373.757812 C 340.972656 373.554688 341.453125 373.328125 341.925781 373.074219 C 342.394531 372.824219 342.851562 372.546875 343.296875 372.253906 C 343.742188 371.957031 344.167969 371.636719 344.582031 371.300781 C 344.996094 370.960938 345.390625 370.601562 345.769531 370.222656 C 346.144531 369.847656 346.503906 369.453125 346.84375 369.039062 C 347.179688 368.625 347.5 368.199219 347.796875 367.753906 C 348.09375 367.308594 348.367188 366.851562 348.617188 366.382812 C 348.871094 365.910156 349.097656 365.429688 349.300781 364.933594 C 349.507812 364.441406 349.6875 363.941406 349.839844 363.429688 C 349.996094 362.917969 350.125 362.398438 350.230469 361.875 C 350.335938 361.351562 350.414062 360.824219 350.464844 360.292969 C 350.515625 359.761719 350.542969 359.230469 350.542969 358.695312 L 350.542969 342.390625 C 350.542969 340.183594 350.496094 337.972656 350.402344 335.765625 C 350.308594 333.558594 350.171875 331.355469 349.992188 329.152344 C 349.8125 326.953125 349.585938 324.753906 349.3125 322.5625 C 349.042969 320.371094 348.726562 318.183594 348.367188 316.003906 C 348.007812 313.824219 347.605469 311.652344 347.15625 309.488281 C 346.707031 307.324219 346.214844 305.171875 345.679688 303.027344 C 345.144531 300.886719 344.566406 298.753906 343.945312 296.632812 C 343.324219 294.515625 342.65625 292.410156 341.949219 290.316406 C 341.242188 288.222656 340.492188 286.144531 339.699219 284.082031 C 338.90625 282.019531 338.074219 279.976562 337.199219 277.949219 C 336.324219 275.917969 335.40625 273.910156 334.449219 271.917969 C 333.492188 269.925781 332.496094 267.957031 331.460938 266.003906 C 330.421875 264.054688 329.34375 262.125 328.230469 260.21875 C 327.113281 258.3125 325.960938 256.429688 324.769531 254.570312 C 323.578125 252.710938 322.347656 250.875 321.082031 249.066406 C 319.8125 247.253906 318.511719 245.472656 317.171875 243.714844 C 315.832031 241.957031 314.457031 240.226562 313.046875 238.527344 C 311.640625 236.824219 310.195312 235.152344 308.71875 233.511719 C 307.242188 231.871094 305.730469 230.257812 304.1875 228.675781 C 302.644531 227.09375 301.070312 225.546875 299.464844 224.027344 C 297.859375 222.511719 296.222656 221.027344 294.554688 219.578125 C 292.890625 218.128906 291.195312 216.710938 289.472656 215.328125 C 287.746094 213.949219 285.996094 212.601562 284.21875 211.292969 C 282.4375 209.980469 280.632812 208.707031 278.804688 207.46875 C 276.972656 206.234375 275.121094 205.03125 273.242188 203.871094 C 271.363281 202.710938 269.460938 201.585938 267.535156 200.503906 C 265.609375 199.417969 263.664062 198.371094 261.695312 197.367188 C 259.730469 196.363281 257.742188 195.398438 255.738281 194.472656 C 253.730469 193.546875 251.707031 192.664062 249.664062 191.820312 C 247.621094 190.980469 245.5625 190.179688 243.488281 189.421875 C 241.414062 188.664062 239.324219 187.945312 237.21875 187.273438 C 235.117188 186.597656 233 185.96875 230.871094 185.378906 Z M 230.871094 185.378906 " fill-opacity="1" fill-rule="nonzero"/></g></svg>